# xmcd
#
# Track frame offsets:
# 150
# 20649
# 38110
# 63441
# 85061
# 102208
# 125141
# 148558
# 169678
# 193545
# 213464
#
# Disc length: 3122 seconds
#
# Revision: 0
# Processed by: cddbd v1.5.2PL0 Copyright (c) Steve Scherf et al.
# Submitted via: Audion 3.0.2 (http://www.panic.com/audion/)
#
DISCID=990c300b
DTITLE=REM - Avalon Theatre, Hollywood 29.10.03
DYEAR=1900
DGENRE=
TTITLE0=1
TTITLE1=2
TTITLE2=3
TTITLE3=4
TTITLE4=5
TTITLE5=6
TTITLE6=7
TTITLE7=8
TTITLE8=9
TTITLE9=10
TTITLE10=11
EXTD=
EXTT0=
EXTT1=
EXTT2=
EXTT3=
EXTT4=
EXTT5=
EXTT6=
EXTT7=
EXTT8=
EXTT9=
EXTT10=
PLAYORDER=
